<svg width="90" height="87" viewBox="0 0 90 87" fill="none" xmlns="http://www.w3.org/2000/svg">
<path d="M44.6673 86.1C23.1808 86.1 0 72.6228 0 43.05C0 13.4772 23.1808 0 44.6673 0C56.6042 0 67.617 3.92764 75.7803 11.0898C84.6368 18.9451 89.3345 30.0349 89.3345 43.05C89.3345 56.0651 84.6368 67.0779 75.7803 74.9332C67.617 82.0953 56.5272 86.1 44.6673 86.1Z" fill="url(#paint0_radial_912_820)"/>
<path d="M81.5485 17.459C85.6533 24.0821 87.7942 31.9681 87.7942 40.7399C87.7942 53.755 83.0965 64.7678 74.24 72.6231C66.0767 79.7852 54.9869 83.7899 43.127 83.7899C29.2185 83.7899 14.6323 78.1294 6.02234 66.1232C14.3089 79.7236 29.8962 86.1002 44.6672 86.1002C56.5271 86.1002 67.6169 82.0956 75.7803 74.9334C84.6367 67.0782 89.3345 56.0654 89.3345 43.0502C89.3345 33.2389 86.6621 24.521 81.5485 17.459Z" fill="#EB8F00"/>
<path d="M39.877 45.7533L39.723 45.6454L39.646 45.5838C36.8659 43.5892 30.0194 38.0751 27.17 36.1267C25.9532 35.2334 24.2743 35.3258 23.1653 36.3577C21.9793 37.5822 22.0178 39.5307 23.2346 40.7166C23.3348 40.8091 23.4349 40.9015 23.5504 40.9785C23.6274 41.0555 23.7044 41.0555 23.7814 41.1325L32.1681 44.8368C31.5366 44.8368 30.9128 44.8368 30.3275 44.9061L27.6321 45.1372C26.7079 45.2912 25.7067 45.4452 24.7056 45.5992C23.7044 45.7533 22.5492 46.0613 21.394 46.3694C20.4391 46.6389 19.5611 47.1395 18.8526 47.8326C18.1826 48.4333 17.7513 49.2496 17.6204 50.143C17.528 50.9978 17.7205 51.8681 18.1595 52.6074C18.5292 53.2697 19.1376 53.7626 19.8538 53.9936C20.57 54.2246 21.3324 54.3017 22.0871 54.2246C22.9112 54.1168 23.6967 53.8242 24.3975 53.3775C25.3987 52.8384 26.3999 52.2993 27.324 51.9143C28.2019 51.4984 29.1107 51.1364 30.0348 50.8284C30.8974 50.528 31.7676 50.2662 32.6533 50.0583C33.5928 49.8272 34.5401 49.6501 35.5027 49.5192C36.5039 49.3652 37.6591 49.2881 38.8913 49.2111C39.7769 49.034 40.4161 48.2639 40.4315 47.3628C40.5008 46.7698 40.3006 46.1768 39.877 45.7533Z" fill="#422B0D"/>
<path d="M72.3147 50.1352C72.1838 49.2418 71.7525 48.4255 71.0825 47.8248C70.374 47.1317 69.496 46.6311 68.5411 46.3616C67.3859 46.0535 66.3077 45.8225 65.2295 45.5914C64.1514 45.3604 63.2272 45.2834 62.3031 45.1294L59.6076 44.8983C58.9992 44.8444 58.3523 44.829 57.6977 44.829L66.0767 41.1247C66.1537 41.0477 66.2307 41.0477 66.3077 40.9707C67.6785 39.9618 67.9712 38.0288 66.9546 36.6657C66.8699 36.5579 66.7852 36.45 66.6928 36.3499C65.5838 35.318 63.9049 35.2255 62.6881 36.1189C59.9157 38.0673 53.0693 43.5814 50.2891 45.576L50.2121 45.6376L50.0581 45.7455C49.6345 46.169 49.4343 46.762 49.5036 47.355C49.519 48.2561 50.1582 49.0262 51.0438 49.2033C52.276 49.2803 53.4312 49.3573 54.4324 49.5114C55.395 49.6423 56.35 49.8271 57.2972 50.0582C58.1829 50.2661 59.0531 50.5279 59.9157 50.8283C60.8321 51.1363 61.7332 51.4906 62.6111 51.9065C63.5353 52.2915 64.5364 52.8306 65.5376 53.3697C66.2307 53.8318 67.0239 54.1167 67.848 54.2168C68.6027 54.2938 69.3651 54.2168 70.0813 53.9858C70.7975 53.7548 71.4059 53.2619 71.7756 52.5996C72.2146 51.8602 72.4071 50.99 72.3147 50.1352Z" fill="#422B0D"/>
<path d="M44.9752 58.6836C53.2926 58.6836 58.6835 64.7676 60.1467 67.6171C60.6858 68.6952 60.6858 69.6194 60.2237 70.0044C59.7308 70.3125 59.0993 70.3125 58.6065 70.0044C58.36 69.9043 58.129 69.7734 57.9133 69.6194C54.1397 66.9085 49.6191 65.4299 44.9752 65.3837C40.3468 65.4453 35.8339 66.8931 32.0371 69.5424C31.8215 69.6964 31.5905 69.8273 31.344 69.9274C30.8512 70.2355 30.2196 70.2355 29.7268 69.9274C29.2647 69.4654 29.2647 68.6182 29.8038 67.54C31.267 64.7676 36.6579 58.6836 44.9752 58.6836Z" fill="#422B0D"/>
<path d="M16.7888 27.5704C15.0944 27.8785 15.0174 30.3431 16.8658 30.4201C20.9477 30.474 24.891 28.9568 27.8793 26.1841C29.0192 25.1983 29.9819 24.0277 30.7289 22.7184C31.1756 22.0791 31.0216 21.2011 30.3824 20.7544C29.7431 20.3077 28.8651 20.4618 28.4184 21.101L28.3414 21.178C25.3223 24.5514 21.2481 26.808 16.7888 27.5704Z" fill="#422B0D"/>
<path d="M60.7631 21.101C60.3164 20.4618 59.4384 20.3077 58.7991 20.7544C58.1599 21.2011 58.0058 22.0791 58.4525 22.7184C59.1996 24.0277 60.1623 25.1983 61.3022 26.1841C64.3059 28.9337 68.2414 30.4509 72.3156 30.4201C74.2411 30.3431 74.087 27.8785 72.3927 27.5704C67.8795 26.8311 63.7744 24.5437 60.7631 21.101Z" fill="#422B0D"/>
<defs>
<radialGradient id="paint0_radial_912_820" cx="0" cy="0" r="1" gradientUnits="userSpaceOnUse" gradientTransform="translate(44.6673 43.05) scale(43.8661 43.8661)">
<stop offset="0.5" stop-color="#FDE030"/>
<stop offset="0.92" stop-color="#F7C02B"/>
<stop offset="1" stop-color="#F4A223"/>
</radialGradient>
</defs>
</svg>
