<svg width="90" height="87" viewBox="0 0 90 87" fill="none" xmlns="http://www.w3.org/2000/svg">
<path d="M44.669 86.1034C23.1817 86.1034 0 72.6257 0 43.0517C0 13.4777 23.1817 0 44.669 0C56.6065 0 67.6197 3.92779 75.7833 11.0902C84.6401 18.9458 89.3381 30.0361 89.3381 43.0517C89.3381 56.0674 84.6401 67.0806 75.7833 74.9362C67.6197 82.0986 56.5294 86.1034 44.669 86.1034Z" fill="url(#paint0_radial_912_829)"/>
<path d="M81.5518 17.4595C85.6567 24.0828 87.7977 31.9692 87.7977 40.7413C87.7977 53.7569 83.0998 64.7702 74.243 72.6257C66.0793 79.7882 54.9891 83.793 43.1287 83.793C29.2197 83.793 14.6329 78.1324 6.02258 66.1256C14.3095 79.7266 29.8974 86.1035 44.669 86.1035C56.5294 86.1035 67.6197 82.0987 75.7833 74.9362C84.6401 67.0806 89.338 56.0674 89.338 43.0518C89.338 33.24 86.6656 24.5218 81.5518 17.4595Z" fill="#EB8F00"/>
<path d="M45.2852 58.7633C42.5281 58.7633 39.794 58.3012 37.1986 57.377C34.0024 56.2757 30.529 57.9777 29.4277 61.1662C28.8039 62.9683 29.058 64.9553 30.1131 66.5418C33.4248 71.6249 38.6619 74.3974 45.2852 74.3974C51.9086 74.3974 57.1456 71.6249 60.4573 66.5418C62.3288 63.7308 61.5586 59.9339 58.7475 58.0624C57.161 57.0073 55.174 56.7532 53.3719 57.377C50.7764 58.3012 48.0424 58.7633 45.2852 58.7633Z" fill="#422B0D"/>
<path opacity="0.8" d="M22.0264 63.3067C29.47 63.3067 35.5042 57.6174 35.5042 50.5992C35.5042 43.581 29.47 37.8916 22.0264 37.8916C14.5829 37.8916 8.54871 43.581 8.54871 50.5992C8.54871 57.6174 14.5829 63.3067 22.0264 63.3067Z" fill="url(#paint1_radial_912_829)"/>
<path opacity="0.8" d="M68.5439 63.3067C75.9874 63.3067 82.0216 57.6174 82.0216 50.5992C82.0216 43.581 75.9874 37.8916 68.5439 37.8916C61.1003 37.8916 55.0662 43.581 55.0662 50.5992C55.0662 57.6174 61.1003 63.3067 68.5439 63.3067Z" fill="url(#paint2_radial_912_829)"/>
<path d="M78.5482 21.0794C72.2252 19.3004 67.5811 24.4681 67.5811 24.4681C67.5811 24.4681 67.042 18.6072 61.6355 16.7666C55.1508 14.5408 48.3041 18.0835 47.896 27.2715C47.4339 37.7379 61.2813 51.4775 61.2813 51.4775C61.2813 51.4775 78.4711 46.8566 84.101 37.0602C88.6834 29.0891 83.3308 22.4195 78.5482 21.0794Z" fill="#F44336"/>
<path d="M78.5482 21.0791C77.7703 20.8711 76.9693 20.7787 76.1684 20.7941C78.4326 22.3113 80.2271 24.4293 81.3438 26.9092C82.4298 29.52 82.7147 32.8933 80.6507 36.9212C76.1761 45.6779 62.398 51.0998 61.3968 51.4771C62.6521 51.1229 78.7176 46.5019 84.1318 37.0829C88.6834 29.0887 83.3308 22.4192 78.5482 21.0791Z" fill="#C62828"/>
<path d="M67.5735 25.4151C67.5273 24.6142 67.4041 23.8132 67.2192 23.0277C66.7725 20.7634 65.3708 18.7995 63.3684 17.6366C61.9976 16.8356 60.4804 16.3273 58.9092 16.1348C58.9092 16.1348 61.2197 16.8356 62.8678 20.0318C63.7073 21.7107 64.2079 23.5437 64.3311 25.4151C64.3234 26.1006 64.4467 26.7706 64.6931 27.4098C64.9704 28.0491 65.6481 28.4265 66.3412 28.3186C67.3964 28.0491 67.6274 26.7321 67.5735 25.4151Z" fill="#C62828"/>
<path d="M52.6017 21.7417C54.0419 19.955 56.4062 18.2529 58.6705 19.824C59.8719 20.6635 59.8874 23.0433 58.4164 24.1138C55.9365 25.9314 55.8209 27.1251 55.5437 28.1263C55.2048 29.3201 54.9892 30.7448 53.9032 31.3456C52.8173 31.9463 51.8623 31.3456 51.2924 29.6281C50.322 26.948 50.8149 23.9598 52.6017 21.7417Z" fill="#FF847A"/>
<path d="M27.0479 16.6122C20.8019 18.6377 19.8007 25.5152 19.8007 25.5152C19.8007 25.5152 16.104 20.8943 10.5588 22.3884C3.9432 24.1289 0.207948 30.8755 4.929 38.7388C10.3971 47.7496 29.5278 51.4849 29.5278 51.4849C29.5278 51.4849 41.2727 38.115 40.5333 26.8399C39.9249 17.6596 31.7689 15.0796 27.0479 16.6122Z" fill="#F44336"/>
<path d="M27.0479 16.6123C26.2855 16.8587 25.5538 17.213 24.8838 17.6597C27.6101 17.6674 30.2749 18.4375 32.5853 19.8854C34.942 21.4257 37.0446 24.1059 37.5683 28.6113C38.7004 38.3846 30.2287 50.5299 29.574 51.4156C30.4289 50.4298 41.2342 37.676 40.5257 26.8322C39.9249 17.6597 31.769 15.0797 27.0479 16.6123Z" fill="#C62828"/>
<path d="M20.3321 26.324C19.8546 25.6694 19.3155 25.0687 18.7148 24.5295C17.0975 22.8814 14.8563 22.0034 12.5536 22.1267C10.9747 22.2191 9.42673 22.6273 8.00964 23.3435C8.00964 23.3435 10.3201 22.6427 13.4623 24.3986C15.1028 25.3459 16.5276 26.6167 17.6674 28.1262C18.0371 28.7038 18.5146 29.1967 19.0768 29.5895C19.6621 29.9668 20.4323 29.8975 20.9483 29.4277C21.6337 28.596 21.1023 27.3791 20.3321 26.324Z" fill="#C62828"/>
<path d="M5.85314 31.5766C5.88395 30.9297 5.99947 30.2905 6.19201 29.6743C6.50778 28.3805 7.42426 27.31 8.64881 26.794C9.82715 26.4243 11.4599 26.6861 12.0914 27.8645C12.6536 28.9119 12.2454 30.1749 11.9374 31.3302C11.6601 32.6548 11.5061 34.0103 11.4753 35.3658C11.483 36.4748 10.5973 37.3759 9.48828 37.3913C8.44087 37.3913 7.6245 36.4825 7.03918 35.6122C6.22282 34.4262 5.80693 33.0168 5.85314 31.5766Z" fill="#FF847A"/>
<defs>
<radialGradient id="paint0_radial_912_829" cx="0" cy="0" r="1" gradientUnits="userSpaceOnUse" gradientTransform="translate(44.669 43.0517) scale(43.8679)">
<stop offset="0.5" stop-color="#FDE030"/>
<stop offset="0.92" stop-color="#F7C02B"/>
<stop offset="1" stop-color="#F4A223"/>
</radialGradient>
<radialGradient id="paint1_radial_912_829" cx="0" cy="0" r="1" gradientUnits="userSpaceOnUse" gradientTransform="translate(22.0264 44.7541) scale(14.6883 13.1895)">
<stop stop-color="#ED7770"/>
<stop offset="0.9" stop-color="#ED7770" stop-opacity="0"/>
</radialGradient>
<radialGradient id="paint2_radial_912_829" cx="0" cy="0" r="1" gradientUnits="userSpaceOnUse" gradientTransform="translate(90.5087 1941.25) scale(14.9872 14.9872)">
<stop stop-color="#ED7770"/>
<stop offset="0.9" stop-color="#ED7770" stop-opacity="0"/>
</radialGradient>
</defs>
</svg>
