<svg width="90" height="87" viewBox="0 0 90 87" fill="none" xmlns="http://www.w3.org/2000/svg">
<path d="M44.6673 86.1C23.1808 86.1 0 72.6228 0 43.05C0 13.4772 23.1808 0 44.6673 0C56.6042 0 67.617 3.92764 75.7803 11.0898C84.6367 18.9451 89.3345 30.0349 89.3345 43.05C89.3345 56.0651 84.6367 67.0779 75.7803 74.9332C67.617 82.0953 56.5272 86.1 44.6673 86.1Z" fill="url(#paint0_radial_912_855)"/>
<path d="M29.5731 26.1382C26.3461 26.1382 23.4117 28.8646 23.4117 33.3932C23.4117 37.9218 26.3461 40.6405 29.5731 40.6405C32.8078 40.6405 35.7345 37.9141 35.7345 33.3932C35.7345 28.8723 32.8387 26.1382 29.5731 26.1382Z" fill="#422B0D"/>
<path d="M29.3034 29.1646C28.2098 28.6408 26.8928 29.103 26.3614 30.1966C25.9532 31.0515 26.138 32.0758 26.8235 32.7382C27.9171 33.2619 29.2341 32.7998 29.7655 31.7061C30.1737 30.8512 29.9889 29.8269 29.3034 29.1646Z" fill="#896024"/>
<path d="M59.1461 26.1382C55.919 26.1382 52.9847 28.8646 52.9847 33.3932C52.9847 37.9218 55.919 40.6405 59.1461 40.6405C62.3731 40.6405 65.3074 37.9141 65.3074 33.3932C65.3074 28.8723 62.3731 26.1382 59.1461 26.1382Z" fill="#422B0D"/>
<path d="M58.8377 29.1646C57.7441 28.6408 56.4271 29.103 55.8957 30.1966C55.4875 31.0515 55.6723 32.0758 56.3578 32.7382C57.4514 33.2619 58.7684 32.7998 59.2998 31.7061C59.708 30.8512 59.5232 29.8269 58.8377 29.1646Z" fill="#896024"/>
<path d="M44.2051 65.1606C37.22 65.2145 30.5507 62.2803 25.8761 57.0897C25.5218 56.6815 25.4371 56.1039 25.6604 55.611C25.8838 55.1105 26.3767 54.787 26.9235 54.7793C27.1699 54.7793 27.4163 54.8486 27.632 54.9718C31.344 57.1051 37.5512 59.7543 44.2051 59.7543H44.3129C50.9591 59.7543 57.174 57.1051 60.8783 54.9718C61.0939 54.8486 61.3403 54.7793 61.5868 54.7793C62.1336 54.787 62.6265 55.1105 62.8498 55.611C63.0808 56.1039 62.9961 56.6815 62.6342 57.0897C57.9595 62.2803 51.2748 65.2222 44.2898 65.1606" fill="#422B0D"/>
<path d="M81.5485 17.4585C85.6533 24.0816 87.7942 31.9677 87.7942 40.7394C87.7942 53.7545 83.0965 64.7673 74.24 72.6226C66.0767 79.7847 54.9869 83.7894 43.127 83.7894C29.2185 83.7894 14.6323 78.129 6.02234 66.1227C14.3089 79.7231 29.8962 86.0998 44.6672 86.0998C56.5271 86.0998 67.6169 82.0951 75.7803 74.9329C84.6367 67.0777 89.3345 56.0649 89.3345 43.0498C89.3345 33.2384 86.6621 24.5205 81.5485 17.4585Z" fill="#EB8F00"/>
<defs>
<radialGradient id="paint0_radial_912_855" cx="0" cy="0" r="1" gradientUnits="userSpaceOnUse" gradientTransform="translate(44.6673 43.05) scale(43.8661 43.8661)">
<stop offset="0.5" stop-color="#FDE030"/>
<stop offset="0.92" stop-color="#F7C02B"/>
<stop offset="1" stop-color="#F4A223"/>
</radialGradient>
</defs>
</svg>
