<svg width="560" height="740" viewBox="0 0 560 740" fill="none" xmlns="http://www.w3.org/2000/svg">
<g clip-path="url(#clip0_631_577)">
<path fill-rule="evenodd" clip-rule="evenodd" d="M280.323 500C280.382 500 280.441 500 280.5 500C280.559 500 280.618 500 280.677 500H280.323ZM509.275 196.024L523.877 192.592C522.721 187.673 521.42 182.809 519.978 178.006L505.611 182.319L491.245 186.632C492.512 190.854 493.656 195.129 494.673 199.455L509.275 196.024ZM487.522 138.692L500.727 131.576C498.335 127.136 495.811 122.776 493.163 118.502L480.413 126.403L467.662 134.304C469.993 138.065 472.213 141.901 474.318 145.807L487.522 138.692ZM451.616 88.9266L462.536 78.6431C459.084 74.9773 455.523 71.4158 451.857 67.9638L441.573 78.884L431.29 89.8042C434.519 92.8446 437.655 95.9814 440.696 99.21L451.616 88.9266ZM404.097 50.0874L411.998 37.3368C407.724 34.6885 403.364 32.1655 398.924 29.7728L391.808 42.9776L384.693 56.1824C388.599 58.2873 392.435 60.5073 396.196 62.8379L404.097 50.0874ZM348.181 24.8885L352.494 10.5219C347.691 9.08001 342.827 7.77864 337.908 6.6226L334.476 21.2249L331.045 35.8272C335.371 36.8436 339.646 37.9876 343.868 39.2551L348.181 24.8885ZM287.623 15.1058L288.069 0.112402C285.555 0.0376439 283.032 0 280.5 0C277.968 0 275.445 0.0376439 272.931 0.112402L273.376 15.1058L273.822 30.0991C276.039 30.0332 278.265 30 280.5 30C282.735 30 284.961 30.0332 287.178 30.0991L287.623 15.1058ZM226.524 21.2249L223.092 6.62259C218.173 7.77864 213.309 9.08001 208.506 10.5219L212.819 24.8885L217.132 39.2551C221.354 37.9876 225.629 36.8436 229.955 35.8272L226.524 21.2249ZM169.192 42.9776L162.076 29.7728C157.636 32.1655 153.276 34.6885 149.002 37.3369L156.903 50.0874L164.804 62.8379C168.565 60.5073 172.401 58.2873 176.307 56.1824L169.192 42.9776ZM119.427 78.884L109.143 67.9638C105.477 71.4158 101.916 74.9774 98.4637 78.6432L109.384 88.9266L120.304 99.21C123.345 95.9814 126.481 92.8446 129.71 89.8042L119.427 78.884ZM80.5873 126.403L67.8368 118.502C65.1885 122.776 62.6654 127.136 60.2727 131.576L73.4776 138.692L86.6824 145.807C88.7873 141.901 91.0072 138.065 93.3379 134.304L80.5873 126.403ZM55.3885 182.319L41.0219 178.006C39.58 182.809 38.2786 187.673 37.1226 192.592L51.7249 196.024L66.3272 199.455C67.3435 195.129 68.4875 190.854 69.755 186.632L55.3885 182.319Z" fill="white"/>
<path d="M10.0212 210H549.975C548.534 352.37 485.503 443.475 399.126 484.62C362.591 502.024 314.963 509.084 274.565 508.642C242.778 508.295 195.876 496.344 165.529 484.478C117.657 465.759 78.8923 434.502 52.0333 388.81C25.7166 344.041 10.6595 285.117 10.0212 210ZM274.455 518.642C313.284 519.066 359.087 512.763 396.276 496.875V555H168.708V496.361C199.605 507.595 243.388 518.303 274.455 518.642Z" fill="white" stroke="white" stroke-width="10" stroke-linecap="round"/>
<path d="M130.973 599.95H155.723V661.3H82.0732V599.95H106.823V612.55H130.973V599.95ZM106.823 632.05V641.8H130.973V632.05H106.823ZM210.923 617.2V643.15C209.723 643.15 208.223 643.3 206.573 643.3C204.773 643.45 202.973 643.6 201.323 643.9C199.523 644.2 197.873 644.35 196.373 644.65C195.323 644.95 194.573 645.25 193.973 645.55V663.55H167.873V599.5H193.973V620.65C195.623 619.6 197.573 618.85 200.123 618.1C202.823 617.5 206.423 617.2 210.923 617.2ZM168.023 668.65H193.973V720.1H88.8232V668.5H115.073V675.55H168.023V668.65ZM115.073 694V700.15H168.023V694H115.073ZM333.876 644.95H225.426V600.25H333.876V644.95ZM307.626 626.2V619H251.676V626.2H307.626ZM266.676 679.15V673H217.326V652H341.376V673H294.726V679.15H266.676ZM217.476 701.05C225.876 700.45 233.226 699.55 239.226 698.35C245.076 697.45 249.876 696.25 253.626 694.75C257.376 693.4 260.226 691.9 262.176 690.1C263.976 688.45 265.026 686.65 265.476 684.55L265.776 682.6H293.826V684.25C293.526 685.9 293.376 687.55 293.076 689.05C299.826 689.65 306.426 690.55 312.876 691.75C322.326 693.7 332.076 697 342.126 701.65L332.976 723.1C324.276 719.2 315.126 716.05 305.676 713.65C297.276 711.7 288.576 710.35 279.876 709.6C279.276 710.05 278.526 710.5 277.926 710.8C272.526 713.8 265.626 716.35 257.076 718.15C248.376 720.1 237.576 721.45 224.676 722.35L217.476 701.05ZM382.724 601.45V690.7H405.524C409.724 690.7 413.924 690.55 418.124 689.95C422.324 689.65 425.774 689.05 428.774 688.15V710.35C426.074 711.85 422.474 712.75 418.274 713.2C413.774 713.8 409.424 713.95 404.924 713.95H354.974V601.45H382.724ZM483.674 639.55V665.5C481.274 665.5 478.124 665.8 474.524 666.1C471.224 666.55 468.074 667.15 465.224 667.9V720.25H437.474V599.5H465.224V642.25C468.074 641.35 471.224 640.6 474.674 640.15C478.424 639.85 481.424 639.55 483.674 639.55Z" fill="white"/>
</g>
<defs>
<clipPath id="clip0_631_577">
<rect width="560" height="740" fill="white"/>
</clipPath>
</defs>
</svg>
