<svg width="560" height="560" viewBox="0 0 560 560" fill="none" xmlns="http://www.w3.org/2000/svg">
<g clip-path="url(#clip0_631_577)">
<path fill-rule="evenodd" clip-rule="evenodd" d="M280.323 500C280.382 500 280.441 500 280.5 500C280.559 500 280.618 500 280.677 500H280.323ZM509.275 196.024L523.877 192.592C522.721 187.673 521.42 182.809 519.978 178.006L505.611 182.319L491.245 186.632C492.512 190.854 493.656 195.129 494.673 199.455L509.275 196.024ZM487.522 138.692L500.727 131.576C498.334 127.136 495.811 122.776 493.163 118.502L480.413 126.403L467.662 134.304C469.993 138.065 472.213 141.901 474.318 145.807L487.522 138.692ZM451.616 88.9266L462.536 78.6431C459.084 74.9773 455.523 71.4158 451.857 67.9638L441.573 78.884L431.29 89.8042C434.519 92.8446 437.655 95.9814 440.696 99.21L451.616 88.9266ZM404.097 50.0874L411.998 37.3368C407.724 34.6885 403.364 32.1655 398.924 29.7728L391.808 42.9776L384.693 56.1824C388.599 58.2873 392.435 60.5073 396.196 62.8379L404.097 50.0874ZM348.181 24.8885L352.494 10.5219C347.691 9.08001 342.827 7.77864 337.908 6.6226L334.476 21.2249L331.045 35.8272C335.371 36.8436 339.646 37.9876 343.868 39.2551L348.181 24.8885ZM287.623 15.1058L288.069 0.112402C285.555 0.0376439 283.032 0 280.5 0C277.968 0 275.445 0.0376439 272.931 0.112402L273.376 15.1058L273.822 30.0991C276.039 30.0332 278.265 30 280.5 30C282.735 30 284.961 30.0332 287.178 30.0991L287.623 15.1058ZM226.524 21.2249L223.092 6.62259C218.173 7.77864 213.309 9.08001 208.506 10.5219L212.819 24.8885L217.132 39.2551C221.354 37.9876 225.629 36.8436 229.955 35.8272L226.524 21.2249ZM169.192 42.9776L162.076 29.7728C157.636 32.1655 153.276 34.6885 149.002 37.3369L156.903 50.0874L164.804 62.8379C168.565 60.5073 172.401 58.2873 176.307 56.1824L169.192 42.9776ZM119.427 78.884L109.143 67.9638C105.477 71.4158 101.916 74.9774 98.4637 78.6432L109.384 88.9266L120.304 99.21C123.345 95.9814 126.481 92.8446 129.71 89.8042L119.427 78.884ZM80.5873 126.403L67.8368 118.502C65.1885 122.776 62.6654 127.136 60.2727 131.576L73.4776 138.692L86.6824 145.807C88.7873 141.901 91.0072 138.065 93.3379 134.304L80.5873 126.403ZM55.3885 182.319L41.0219 178.006C39.58 182.809 38.2786 187.673 37.1226 192.592L51.7249 196.024L66.3272 199.455C67.3435 195.129 68.4875 190.854 69.755 186.632L55.3885 182.319Z" fill="black"/>
<path d="M10.0212 210H549.975C548.534 352.37 485.503 443.475 399.126 484.62C362.591 502.024 314.963 509.084 274.565 508.642C242.778 508.295 195.876 496.344 165.529 484.478C117.657 465.759 78.8923 434.502 52.0333 388.81C25.7166 344.041 10.6595 285.117 10.0212 210ZM274.455 518.642C313.284 519.066 359.087 512.763 396.276 496.875V555H168.708V496.361C199.605 507.595 243.388 518.303 274.455 518.642Z" fill="black" stroke="black" stroke-width="10" stroke-linecap="round"/>
</g>
<defs>
<clipPath id="clip0_631_577">
<rect width="560" height="560" fill="white"/>
</clipPath>
</defs>
</svg>
