<svg width="413" height="150" viewBox="0 0 413 150" fill="none" xmlns="http://www.w3.org/2000/svg">
<g clip-path="url(#clip0_631_577)">
<path d="M57.4732 9.94999H82.2232V71.3H8.57324V9.94999H33.3232V22.55H57.4732V9.94999ZM33.3232 42.05V51.8H57.4732V42.05H33.3232ZM137.423 27.2V53.15C136.223 53.15 134.723 53.3 133.073 53.3C131.273 53.45 129.473 53.6 127.823 53.9C126.023 54.2 124.373 54.35 122.873 54.65C121.823 54.95 121.073 55.25 120.473 55.55V73.55H94.3732V9.49999H120.473V30.65C122.123 29.6 124.073 28.85 126.623 28.1C129.323 27.5 132.923 27.2 137.423 27.2ZM94.5232 78.65H120.473V130.1H15.3232V78.5H41.5732V85.55H94.5232V78.65ZM41.5732 104V110.15H94.5232V104H41.5732ZM260.376 54.95H151.926V10.25H260.376V54.95ZM234.126 36.2V29H178.176V36.2H234.126ZM193.176 89.15V83H143.826V62H267.876V83H221.226V89.15H193.176ZM143.976 111.05C152.376 110.45 159.726 109.55 165.726 108.35C171.576 107.45 176.376 106.25 180.126 104.75C183.876 103.4 186.726 101.9 188.676 100.1C190.476 98.45 191.526 96.65 191.976 94.55L192.276 92.6H220.326V94.25C220.026 95.9 219.876 97.55 219.576 99.05C226.326 99.65 232.926 100.55 239.376 101.75C248.826 103.7 258.576 107 268.626 111.65L259.476 133.1C250.776 129.2 241.626 126.05 232.176 123.65C223.776 121.7 215.076 120.35 206.376 119.6C205.776 120.05 205.026 120.5 204.426 120.8C199.026 123.8 192.126 126.35 183.576 128.15C174.876 130.1 164.076 131.45 151.176 132.35L143.976 111.05ZM309.224 11.45V100.7H332.024C336.224 100.7 340.424 100.55 344.624 99.95C348.824 99.65 352.274 99.05 355.274 98.15V120.35C352.574 121.85 348.974 122.75 344.774 123.2C340.274 123.8 335.924 123.95 331.424 123.95H281.474V11.45H309.224ZM410.174 49.55V75.5C407.774 75.5 404.624 75.8 401.024 76.1C397.724 76.55 394.574 77.15 391.724 77.9V130.25H363.974V9.49999H391.724V52.25C394.574 51.35 397.724 50.6 401.174 50.15C404.924 49.85 407.924 49.55 410.174 49.55Z" fill="#FF8024"/>
</g>
<defs>
<clipPath id="clip0_631_577">
<rect width="413" height="150" fill="white"/>
</clipPath>
</defs>
</svg>
