<svg width="395" height="350" viewBox="0 0 395 350" fill="none" xmlns="http://www.w3.org/2000/svg">
<rect width="395" height="350" fill="#FF8024" fill-opacity="0.8"/>
<g clip-path="url(#clip0_704_1073)">
<path fill-rule="evenodd" clip-rule="evenodd" d="M254.852 103.592L251.419 105.429L247.985 107.266C247.446 106.257 246.875 105.263 246.274 104.287L249.591 102.247L252.908 100.206C253.59 101.316 254.239 102.445 254.852 103.592ZM245.026 89.8764L242.182 92.5366L239.338 95.1968C238.948 94.7791 238.55 94.3667 238.146 93.9597C237.741 93.5526 237.331 93.1524 236.916 92.7589L239.595 89.9326L242.274 87.1064C242.745 87.5535 243.211 88.0083 243.67 88.4707C244.13 88.9331 244.582 89.4018 245.026 89.8764ZM231.995 79.1571L229.933 82.4604L227.872 85.7637C226.899 85.1567 225.909 84.5796 224.904 84.0332L226.763 80.6118L228.623 77.1905C229.765 77.8115 230.89 78.4672 231.995 79.1571ZM216.643 72.1594L215.502 75.8825L214.361 79.6056C213.267 79.2703 212.162 78.9677 211.048 78.6983L211.962 74.9133L212.877 71.1284C214.144 71.4345 215.399 71.7784 216.643 72.1594ZM200.005 69.3555L199.863 73.2469L199.72 77.1383C199.149 77.1173 198.576 77.105 198.002 77.1012C197.429 77.0975 196.856 77.1024 196.284 77.1158L196.192 73.2229L196.101 69.33C196.75 69.3147 197.401 69.3091 198.053 69.3134C198.705 69.3176 199.356 69.3317 200.005 69.3555ZM183.207 70.9348L184.072 74.7314L184.937 78.528C183.82 78.7828 182.711 79.071 181.612 79.392L180.52 75.6543L179.428 71.9166C180.676 71.5518 181.936 71.2244 183.207 70.9348ZM167.383 76.791L169.198 80.2363L171.013 83.6816C170 84.2149 169.003 84.779 168.023 85.3733L166.004 82.0433L163.985 78.7134C165.1 78.038 166.233 77.397 167.383 76.791ZM153.604 86.5279L156.246 89.3889L158.888 92.2498C158.467 92.6379 158.052 93.0328 157.643 93.4345C157.233 93.8362 156.83 94.2434 156.434 94.656L153.625 91.9589L150.816 89.2618C151.267 88.793 151.724 88.3303 152.19 87.8739C152.655 87.4175 153.127 86.9688 153.604 86.5279ZM142.8 99.488L146.09 101.571L149.38 103.655C148.766 104.623 148.183 105.609 147.63 106.611L144.221 104.729L140.812 102.848C141.44 101.709 142.103 100.589 142.8 99.488ZM135.703 114.795L139.418 115.96L143.134 117.125C142.791 118.217 142.481 119.32 142.205 120.432L138.426 119.493L134.647 118.553C134.961 117.289 135.313 116.035 135.703 114.795ZM132.79 131.413L136.681 131.581L140.571 131.749C140.546 132.32 140.53 132.893 140.523 133.467C140.515 134.041 140.516 134.613 140.526 135.185L136.633 135.252L132.739 135.318C132.728 134.668 132.727 134.017 132.735 133.365C132.744 132.713 132.762 132.063 132.79 131.413ZM134.26 148.222L138.062 147.381L141.864 146.541C142.112 147.66 142.393 148.771 142.706 149.871L138.962 150.939L135.217 152.007C134.86 150.756 134.541 149.494 134.26 148.222ZM140.013 164.083L143.47 162.291L146.927 160.499C147.454 161.515 148.011 162.516 148.599 163.5L145.256 165.497L141.913 167.494C141.245 166.375 140.611 165.238 140.013 164.083ZM149.66 177.925L152.538 175.303L155.416 172.68C155.801 173.102 156.193 173.52 156.592 173.932C156.991 174.345 157.396 174.75 157.806 175.149L155.091 177.94L152.375 180.731C151.909 180.278 151.45 179.817 150.996 179.349C150.543 178.88 150.097 178.406 149.66 177.925ZM162.549 188.814L164.654 185.538L166.758 182.262C167.723 182.881 168.705 183.471 169.703 184.031L167.799 187.427L165.895 190.824C164.761 190.188 163.645 189.518 162.549 188.814ZM177.809 196.011L178.998 192.303L180.188 188.595C181.277 188.945 182.378 189.262 183.489 189.546L182.525 193.319L181.56 197.091C180.298 196.769 179.047 196.408 177.809 196.011ZM194.408 199.032L194.601 195.143L194.795 191.254C195.366 191.282 195.938 191.302 196.512 191.313C197.086 191.324 197.659 191.327 198.231 191.321L198.271 195.215L198.312 199.108C197.662 199.115 197.011 199.112 196.36 199.1C195.708 199.087 195.057 199.064 194.408 199.032ZM211.226 197.672L210.41 193.864L209.594 190.057C210.715 189.817 211.828 189.543 212.93 189.236L213.974 192.988L215.017 196.74C213.764 197.088 212.5 197.399 211.226 197.672ZM227.125 192.023C228.283 191.432 229.424 190.806 230.547 190.145L228.572 186.789L226.597 183.433C225.609 184.014 224.605 184.565 223.585 185.085L225.355 188.554L227.125 192.023ZM241.029 182.466L238.425 179.571L235.821 176.676C236.246 176.294 236.667 175.904 237.081 175.508C237.496 175.111 237.905 174.709 238.306 174.302L241.079 177.036L243.853 179.769C243.396 180.232 242.933 180.689 242.461 181.139C241.99 181.589 241.513 182.032 241.029 182.466ZM252.002 169.648L248.739 167.522L245.477 165.396C246.103 164.436 246.699 163.457 247.265 162.463L250.65 164.389L254.034 166.315C253.391 167.445 252.713 168.557 252.002 169.648ZM259.298 154.436L255.598 153.222L251.898 152.009C252.255 150.921 252.579 149.822 252.87 148.714L256.637 149.702L260.403 150.691C260.072 151.951 259.704 153.2 259.298 154.436ZM262.242 128.108C262.189 127.545 262.129 126.984 262.061 126.424H260.658V130.318V132.315L258.608 132.377L254.716 132.494C254.733 133.065 254.742 133.638 254.742 134.212H258.636H260.658H260.679H262.53C262.53 133.56 262.52 132.909 262.5 132.26C262.498 132.176 262.495 132.093 262.492 132.01C262.473 131.445 262.447 130.881 262.413 130.318C262.369 129.579 262.312 128.843 262.242 128.108ZM258.615 135.804L254.722 135.702L248.177 135.531V138.106H248.092L248.16 135.531L244.433 135.434V138.106V139.329L244.315 139.326L244.417 135.433L231.952 135.108V138.106H231.862L231.94 135.108L228.208 135.01V138.106V138.905L228.096 138.903L228.197 135.01L215.727 134.684V138.106H215.631L215.721 134.684L211.983 134.587V138.106V138.482L211.876 138.479L211.978 134.586L199.502 134.261V138.106H199.401L199.501 134.261L197.63 134.212H199.502V130.366L199.603 130.368L199.503 134.212H211.983V130.318H212.089L212.079 130.694L211.988 134.212H215.727V130.789L215.822 130.792L215.733 134.212H228.208V130.318H228.32L228.299 131.117L228.218 134.212H231.952V131.213L232.042 131.215L231.964 134.212H244.433V130.318H244.55L244.518 131.541L244.449 134.212H248.177V131.636L248.261 131.638L248.194 134.212M248.177 130.318H244.55L244.62 127.648L248.177 127.741V130.318ZM231.952 130.318H228.32L228.4 127.224L231.952 127.317V130.318ZM215.727 130.318H212.089L212.181 126.801L215.727 126.894V130.318ZM199.299 142L199.4 138.154L197.63 138.107V138.106V134.212L197.731 130.319L197.731 130.318H199.502V126.47L197.833 126.427L197.731 130.318H197.63L197.528 138.104V138.105L197.63 138.107V142H199.299ZM215.53 142H211.983V138.482L215.619 138.577L215.53 142ZM231.76 142H228.208V138.905L231.839 139L231.76 142ZM247.991 142H244.433V139.329L248.058 139.424L247.991 142ZM258.615 135.804C258.599 136.416 258.574 137.028 258.54 137.638L258.615 135.804ZM260.636 135.857L260.587 137.753L258.54 137.638M260.658 137.757L260.587 137.753L260.535 139.749M262.413 138.106C262.379 138.67 262.338 139.233 262.289 139.795C262.226 140.532 262.15 141.267 262.061 142C261.993 142.561 261.918 143.121 261.836 143.678M262.413 138.106C262.418 138.023 262.423 137.94 262.427 137.856C262.464 137.209 262.491 136.56 262.508 135.91C262.508 135.91 262.508 135.909 262.508 135.909C262.508 135.908 262.508 135.907 262.508 135.905L260.658 135.857L260.636 135.857M259.805 115.604L256.075 116.721L252.344 117.837C252.672 118.934 252.968 120.041 253.23 121.157L257.021 120.266L260.812 119.376C260.514 118.108 260.178 116.85 259.805 115.604Z" fill="white"/>
<path d="M168.609 196.291V195.405L167.783 195.082C155.356 190.223 145.292 182.108 138.32 170.247C131.488 158.625 127.579 143.328 127.413 123.828H267.585C267.211 160.787 250.849 184.438 228.425 195.119L227.685 195.472V196.291V213.39H168.609V196.291Z" fill="white" stroke="white" stroke-width="2.596" stroke-linecap="round"/>
</g>
<path d="M81.9747 273.688H78.8026L83.6359 259.687H87.4506L92.2771 273.688H89.105L85.598 262.886H85.4886L81.9747 273.688ZM81.7764 268.185H89.2691V270.495H81.7764V268.185ZM96.4989 259.687V273.688H93.5388V259.687H96.4989ZM109.461 257.555H112.041V275.382H109.461V257.555ZM111.367 264.37H114.505V266.469H111.367V264.37ZM104.783 259.403H107.285C107.285 264.755 105.245 269.337 99.3154 272.321L97.8908 270.377C102.569 267.951 104.783 264.678 104.783 259.846V259.403ZM98.8726 259.403H106.092V261.463H98.8726V259.403ZM119.902 258.71H128.392V266.565H119.902V258.71ZM125.87 260.732H122.424V264.544H125.87V260.732ZM130.856 257.575H133.417V267.547H130.856V257.575ZM132.704 261.444H135.785V263.523H132.704V261.444ZM126.313 269.337H128.469V269.761C128.469 272.533 126.178 274.785 121.866 275.344L120.942 273.399C124.657 272.956 126.313 271.301 126.313 269.761V269.337ZM126.871 269.337H129.047V269.761C129.047 271.243 130.741 272.956 134.398 273.438L133.494 275.382C129.181 274.824 126.871 272.456 126.871 269.761V269.337ZM121.693 268.394H133.648V270.396H121.693V268.394ZM143.445 267.759H145.986V270.396H143.445V267.759ZM136.669 266.122H152.782V268.144H136.669V266.122ZM143.445 257.575H145.986V260.212H143.445V257.575ZM143.291 260.328H145.543V260.674C145.543 263.331 142.964 265.16 138.074 265.487L137.342 263.581C141.655 263.35 143.291 262.002 143.291 260.674V260.328ZM143.888 260.328H146.14V260.674C146.14 262.002 147.777 263.35 152.089 263.581L151.357 265.487C146.467 265.16 143.888 263.331 143.888 260.674V260.328ZM138.209 259.115H151.242V261.098H138.209V259.115ZM138.536 269.51H150.857V275.209H138.536V269.51ZM148.354 271.513H141.058V273.187H148.354V271.513ZM162.164 258.383H164.282V260.097C164.282 263.466 162.646 266.526 159.161 267.643L157.91 265.622C160.913 264.659 162.164 262.349 162.164 260.097V258.383ZM162.684 258.383H164.783V260.097C164.783 262.291 166.015 264.447 168.922 265.333L167.67 267.335C164.263 266.257 162.684 263.408 162.684 260.097V258.383ZM160.644 268.991H172.81V275.401H170.231V271.031H160.644V268.991ZM170.231 257.575H172.81V268.201H170.231V257.575ZM186.747 257.575H189.307V270.454H186.747V257.575ZM188.576 262.426H191.675V264.524H188.576V262.426ZM175.947 265.487H177.429C181.299 265.487 183.224 265.41 185.361 264.948L185.611 266.969C183.436 267.451 181.395 267.547 177.429 267.547H175.947V265.487ZM175.947 258.98H183.917V261.04H178.488V266.584H175.947V258.98ZM177.814 273.053H189.943V275.093H177.814V273.053ZM177.814 269.106H180.375V274.092H177.814V269.106ZM200.626 257.825C204.688 257.825 207.075 258.903 207.075 260.867C207.075 262.83 204.688 263.908 200.626 263.908C196.544 263.908 194.176 262.83 194.176 260.867C194.176 258.903 196.544 257.825 200.626 257.825ZM200.626 259.692C198.046 259.692 196.833 260.077 196.833 260.867C196.833 261.694 198.046 262.041 200.626 262.041C203.205 262.041 204.418 261.694 204.418 260.867C204.418 260.077 203.205 259.692 200.626 259.692ZM192.559 264.736H208.673V266.758H192.559V264.736ZM194.407 267.759H206.728V272.34H196.949V273.919H194.427V270.569H204.206V269.664H194.407V267.759ZM194.427 273.361H207.19V275.286H194.427V273.361ZM225.89 257.575H228.451V275.401H225.89V257.575ZM227.238 264.274H230.376V266.392H227.238V264.274ZM215.995 260.501H217.863V261.964C217.863 265.814 217.478 269.722 215.052 271.609L213.473 269.761C215.687 268.067 215.995 264.929 215.995 261.964V260.501ZM216.592 260.501H218.402V261.964C218.402 264.717 218.71 268.028 221.058 269.895L219.711 271.782C217.035 269.799 216.592 265.545 216.592 261.964V260.501ZM221.02 260.501H222.829V261.964C222.829 265.602 222.367 269.818 219.711 271.782L218.363 269.895C220.693 268.047 221.02 264.755 221.02 261.964V260.501ZM221.578 260.501H223.465V261.964C223.465 264.967 223.773 268.086 225.987 269.761L224.408 271.609C221.982 269.722 221.578 265.853 221.578 261.964V260.501ZM214.147 259.095H219.422V261.155H214.147V259.095ZM220.019 259.095H225.005V261.155H220.019V259.095ZM232.819 259.076H244.12V261.136H232.819V259.076ZM231.183 271.185H247.296V273.264H231.183V271.185ZM236.881 265.063H239.442V272.206H236.881V265.063ZM243.196 259.076H245.756V260.79C245.756 263.023 245.756 265.525 245.044 269.337L242.484 269.048C243.196 265.506 243.196 262.926 243.196 260.79V259.076ZM256.486 268.394H258.411V268.991C258.411 271.686 257.218 274.15 254.426 275.151L253.175 273.284C255.505 272.494 256.486 270.723 256.486 268.991V268.394ZM257.141 268.394H258.97V268.991C258.97 270.723 259.836 272.533 262.011 273.438L260.991 275.324C258.161 274.266 257.141 271.609 257.141 268.991V268.394ZM262.993 268.394H264.822V268.991C264.822 271.455 263.763 274.227 260.991 275.324L259.932 273.438C262.108 272.456 262.993 270.569 262.993 268.991V268.394ZM263.59 268.394H265.515V268.991C265.515 270.839 266.478 272.552 268.826 273.284L267.575 275.151C264.745 274.189 263.59 271.801 263.59 268.991V268.394ZM264.726 257.594H267.306V267.662H264.726V257.594ZM257.603 258.499C260.375 258.499 262.435 260.27 262.435 262.772C262.435 265.256 260.375 267.027 257.603 267.027C254.831 267.027 252.752 265.256 252.752 262.772C252.752 260.27 254.831 258.499 257.603 258.499ZM257.603 260.616C256.255 260.616 255.254 261.406 255.254 262.772C255.254 264.12 256.255 264.909 257.603 264.909C258.95 264.909 259.932 264.12 259.932 262.772C259.932 261.406 258.95 260.616 257.603 260.616ZM274.658 258.807C277.315 258.807 279.259 261.271 279.259 265.16C279.259 269.087 277.315 271.551 274.658 271.551C271.982 271.551 270.057 269.087 270.057 265.16C270.057 261.271 271.982 258.807 274.658 258.807ZM274.658 261.136C273.368 261.136 272.502 262.541 272.502 265.16C272.502 267.816 273.368 269.241 274.658 269.241C275.967 269.241 276.814 267.816 276.814 265.16C276.814 262.541 275.967 261.136 274.658 261.136ZM282.185 257.555H284.727V275.44H282.185V257.555ZM278.508 263.985H283.263V266.045H278.508V263.985ZM290.616 266.623H293.157V271.628H290.616V266.623ZM297.084 266.623H299.645V271.628H297.084V266.623ZM287.074 271.262H303.206V273.341H287.074V271.262ZM295.121 258.441C298.952 258.441 301.782 260.328 301.782 263.235C301.782 266.141 298.952 268.009 295.121 268.009C291.27 268.009 288.46 266.141 288.46 263.235C288.46 260.328 291.27 258.441 295.121 258.441ZM295.121 260.443C292.637 260.443 290.982 261.463 290.982 263.235C290.982 264.986 292.637 266.026 295.121 266.026C297.604 266.026 299.26 264.986 299.26 263.235C299.26 261.463 297.604 260.443 295.121 260.443ZM305.04 269.907C305.013 269.046 305.118 268.317 305.355 267.72C305.592 267.123 305.936 266.669 306.387 266.359C306.843 266.049 307.378 265.894 307.994 265.894C308.422 265.894 308.832 265.983 309.224 266.161C309.616 266.339 310.061 266.646 310.557 267.084C310.822 267.316 311.045 267.494 311.227 267.617C311.41 267.736 311.619 267.795 311.856 267.795C312.18 267.795 312.447 267.67 312.656 267.419C312.866 267.164 312.964 266.76 312.95 266.209H315.179C315.211 267.075 315.106 267.806 314.864 268.403C314.623 269 314.274 269.454 313.818 269.764C313.363 270.074 312.832 270.229 312.225 270.229C311.774 270.229 311.35 270.135 310.954 269.948C310.562 269.757 310.127 269.452 309.648 269.032C309.366 268.782 309.14 268.602 308.971 268.492C308.803 268.378 308.602 268.321 308.37 268.321C308.046 268.321 307.78 268.444 307.57 268.691C307.36 268.932 307.262 269.338 307.276 269.907H305.04Z" fill="white"/>
<defs>
<clipPath id="clip0_704_1073">
<rect width="145.376" height="145.376" fill="white" transform="translate(124.812 69.312)"/>
</clipPath>
</defs>
</svg>
